<svg width="335" height="50" viewBox="0 0 335 50" fill="none" xmlns="http://www.w3.org/2000/svg">
<rect y="17" width="335" height="16" rx="8" fill="#272727"/>
<rect y="17" width="237" height="16" rx="8" fill="#FFF100"/>
<path d="M256.894 46.6297C255.377 48.1371 252.928 48.1371 251.411 46.6297L212.777 8.24326C211.246 6.72211 211.246 4.24544 212.777 2.72429C214.294 1.21689 216.744 1.21689 218.261 2.72429L256.894 41.1107C258.425 42.6319 258.425 45.1086 256.894 46.6297Z" fill="#F42C2C"/>
<path d="M213.106 47.2757C211.575 45.7546 211.575 43.2779 213.106 41.7567L251.739 3.37029C253.256 1.86289 255.706 1.86289 257.223 3.37029C258.754 4.89144 258.754 7.36811 257.223 8.88926L218.589 47.2757C217.072 48.7831 214.623 48.7831 213.106 47.2757Z" fill="#F42C2C"/>
</svg>
