<svg width="23" height="18" viewBox="0 0 23 18" fill="none" xmlns="http://www.w3.org/2000/svg">
<path d="M18.5 7.75C18.5 8.16421 18.1642 8.5 17.75 8.5C17.3358 8.5 17 8.16421 17 7.75C17 7.33579 17.3358 7 17.75 7C18.1642 7 18.5 7.33579 18.5 7.75Z" fill="#0D0D0D"/>
<path d="M15.5 7.75C15.5 8.16421 15.1642 8.5 14.75 8.5C14.3358 8.5 14 8.16421 14 7.75C14 7.33579 14.3358 7 14.75 7C15.1642 7 15.5 7.33579 15.5 7.75Z" fill="#0D0D0D"/>
<path d="M16.25 5.5C16.6642 5.5 17 5.83579 17 6.25C17 6.66421 16.6642 7 16.25 7C15.8358 7 15.5 6.66421 15.5 6.25C15.5 5.83579 15.8358 5.5 16.25 5.5Z" fill="#0D0D0D"/>
<path d="M16.25 8.5C16.6642 8.5 17 8.83579 17 9.25C17 9.66421 16.6642 10 16.25 10C15.8358 10 15.5 9.66421 15.5 9.25C15.5 8.83579 15.8358 8.5 16.25 8.5Z" fill="#0D0D0D"/>
<path d="M7 6.5V9.5M5.5 8L8.5 8" stroke="#0D0D0D" stroke-width="1.5" stroke-linecap="round"/>
<path d="M9.66497 2.27922L10.1669 2.63443C10.5567 2.91029 11.0225 3.05844 11.5 3.05844C11.9776 3.05844 12.4434 2.91029 12.8332 2.63441L13.3351 2.27922C14.0514 1.77225 14.9074 1.5 15.7849 1.5H16.3974C16.8016 1.5 17.2099 1.52549 17.5908 1.66059C19.9735 2.50566 21.6125 5.59503 21.494 12.6026C21.4701 14.0145 21.1397 15.575 19.8658 16.1842C19.4688 16.3741 19.0033 16.5 18.4733 16.5C17.8373 16.5 17.3322 16.3187 16.9424 16.0632C16.0285 15.4642 15.3588 14.4639 14.3888 13.9609C13.8048 13.6581 13.1566 13.5 12.4989 13.5H10.5011C9.84336 13.5 9.19519 13.6581 8.61125 13.9609C7.64122 14.4639 6.97153 15.4642 6.05763 16.0632C5.6678 16.3187 5.16273 16.5 4.52671 16.5C3.99667 16.5 3.53121 16.3741 3.13423 16.1842C1.8603 15.575 1.52992 14.0145 1.50604 12.6026C1.38749 5.59504 3.02645 2.50566 5.40915 1.66059C5.79009 1.52549 6.19838 1.5 6.60257 1.5H7.21504C8.09264 1.5 8.94862 1.77225 9.66497 2.27922Z" stroke="#0D0D0D" stroke-width="1.5" stroke-linecap="round"/>
</svg>
