<svg width="8" height="12" viewBox="0 0 8 12" fill="none" xmlns="http://www.w3.org/2000/svg">
<g clip-path="url(#clip0_1889_5859)">
<path d="M0 1.35077V0.126917C0 0.0208385 0.129412 -0.037742 0.216806 0.0271714L7.79325 5.60181C7.85763 5.64897 7.90971 5.70936 7.94554 5.77837C7.98137 5.84737 8 5.92318 8 6C8 6.07682 7.98137 6.15263 7.94554 6.22163C7.90971 6.29064 7.85763 6.35103 7.79325 6.39819L0.216806 11.9728C0.127731 12.0377 0 11.9792 0 11.8731V10.6492C0 10.5716 0.0386548 10.4972 0.10252 10.4497L6.15292 6.00079L0.10252 1.55026C0.0386548 1.50276 0 1.42835 0 1.35077Z" fill="#0D0D0D"/>
</g>
<defs>
<clipPath id="clip0_1889_5859">
<rect width="8" height="12" fill="white" transform="matrix(-1 0 0 1 8 0)"/>
</clipPath>
</defs>
</svg>
