<svg width="335" height="140" viewBox="0 0 335 140" fill="none" xmlns="http://www.w3.org/2000/svg">
<path d="M216.498 29.2188H222.797H246.879C253.018 29.2188 257.994 34.213 257.994 40.3738V84.7384C257.994 85.0849 257.713 85.3658 257.367 85.3658H247.507C247.16 85.3658 246.879 85.0849 246.879 84.7384V71.5611C246.879 70.8682 246.318 70.3065 245.625 70.3065H222.569C221.876 70.3065 221.315 70.8682 221.315 71.5611V84.7384C221.315 85.0849 221.034 85.3658 220.687 85.3658H210.827C210.481 85.3658 210.2 85.0849 210.2 84.7384V70.3065C210.2 64.1457 215.176 59.1514 221.315 59.1514H245.625C246.318 59.1514 246.879 58.5897 246.879 57.8967V41.6285C246.879 40.9355 246.318 40.3738 245.625 40.3738H216.864C216.638 40.3738 216.429 40.2519 216.318 40.0549L210.2 29.2188H216.498Z" fill="white"/>
<path d="M304.863 29.2188H298.564H276.519C270.381 29.2188 265.404 34.213 265.404 40.3738V74.2107C265.404 80.3715 270.381 85.3658 276.519 85.3658H310.534C310.88 85.3658 311.161 85.0849 311.161 84.7384V74.8381C311.161 74.4916 310.88 74.2107 310.534 74.2107H277.774C277.081 74.2107 276.519 73.649 276.519 72.956V41.6285C276.519 40.9355 277.081 40.3738 277.774 40.3738H304.496C304.723 40.3738 304.931 40.2519 305.043 40.0549L311.004 29.4963C311.074 29.3724 310.985 29.2188 310.843 29.2188H304.863Z" fill="white"/>
<path fill-rule="evenodd" clip-rule="evenodd" d="M166.295 29.2188H159.997H153.698L159.997 40.3738L159.997 84.7384C159.997 85.0849 160.278 85.3658 160.624 85.3658H170.485C170.831 85.3658 171.112 85.0849 171.112 84.7384V72.5375H194.639C200.777 72.5375 205.754 67.5432 205.754 61.3824V40.3738C205.754 34.213 200.777 29.2188 194.639 29.2188H166.295ZM193.07 40.3738H172.68H171.112V41.9421V59.8141V61.3824H172.68H193.07C193.937 61.3824 194.639 60.6803 194.639 59.8141V41.9421C194.639 41.076 193.937 40.3738 193.07 40.3738Z" fill="white"/>
<path fill-rule="evenodd" clip-rule="evenodd" d="M84.0414 50.4437C85.8892 46.8247 86.8504 42.7949 86.8144 38.6897C86.7653 33.1062 84.8744 27.6948 81.4346 23.2938C77.9948 18.8929 73.1981 15.7482 67.7878 14.3469C62.3774 12.9456 56.6555 13.366 51.5086 15.5429C46.3617 17.7199 42.0772 21.5318 39.3189 26.3882C36.5605 31.2445 35.4824 36.8741 36.2516 42.4046C37.0208 47.9351 39.5943 53.0579 43.5734 56.979C46.499 59.8621 50.0644 61.9773 53.9517 63.1705L56.384 43.7366C57.1018 38.0016 63.7584 35.1861 68.3801 38.6627L84.0414 50.4437ZM86.9645 54.2184C86.0737 55.7024 84.0915 55.972 82.7078 54.9312L65.7391 42.1667C63.8133 40.7181 61.0398 41.8912 60.7407 44.2808L58.1053 65.3372C57.8904 67.0541 56.317 68.2884 54.6304 67.8946C49.3084 66.6517 44.4097 63.9643 40.49 60.1017C35.8232 55.5028 32.8049 49.4946 31.9028 43.0082C31.0007 36.5218 32.2651 29.9192 35.5002 24.2235C38.7352 18.5278 43.7603 14.057 49.7968 11.5038C55.8333 8.95056 62.5442 8.4575 68.8896 10.101C75.2351 11.7445 80.8608 15.4328 84.8952 20.5944C88.9296 25.756 91.1473 32.1027 91.2048 38.6512C91.2531 44.1513 89.7752 49.5357 86.9645 54.2184Z" fill="white"/>
<path fill-rule="evenodd" clip-rule="evenodd" d="M90.0475 90.5359C92.2609 93.9442 95.2737 96.7906 98.8504 98.812C103.715 101.561 109.352 102.631 114.887 101.856C120.422 101.08 125.546 98.5025 129.466 94.5223C133.386 90.5421 135.883 85.3815 136.569 79.8401C137.255 74.2987 136.093 68.6859 133.262 63.8713C130.431 59.0567 126.09 55.3092 120.911 53.2094C115.732 51.1096 110.005 50.7747 104.616 52.2567C100.654 53.3463 97.0378 55.3734 94.0597 58.14L107.531 68.3284C113.105 72.5438 112.033 81.2036 105.599 83.9347L90.0475 90.5359ZM86.1109 92.5264C84.7315 90.3269 85.8762 87.5408 88.2673 86.5258L103.882 79.8978C107.21 78.4852 107.764 74.0059 104.881 71.8256L91.3549 61.5957C89.2834 60.0291 88.853 57.0484 90.7273 55.2511C94.2838 51.8409 98.6509 49.3478 103.451 48.0278C109.771 46.2897 116.488 46.6824 122.563 49.1451C128.637 51.6079 133.728 56.0031 137.048 61.6498C140.368 67.2965 141.731 73.8795 140.926 80.3787C140.121 86.8779 137.193 92.9304 132.596 97.5985C127.998 102.267 121.988 105.29 115.497 106.199C109.005 107.109 102.394 105.854 96.6886 102.63C92.3554 100.181 88.7282 96.6996 86.1109 92.5264Z" fill="#FFF100"/>
<path fill-rule="evenodd" clip-rule="evenodd" d="M78.4062 95.4772C79.3054 99.4392 79.244 103.581 78.1975 107.551C76.7742 112.951 73.608 117.731 69.1896 121.15C64.7711 124.57 59.3471 126.438 53.758 126.466C48.1689 126.494 42.7266 124.679 38.2746 121.303C33.8225 117.928 30.6091 113.179 29.1323 107.794C27.6556 102.409 27.9978 96.6873 30.1062 91.5161C32.2145 86.345 35.9711 82.0128 40.7939 79.1908C44.34 77.116 48.3169 75.9427 52.3786 75.7422L49.9473 95.1762C49.2298 100.911 54.9877 105.277 60.3239 103.044L78.4062 95.4772ZM82.1695 92.5375C81.6719 90.8801 79.817 90.1313 78.2195 90.7998L58.6276 98.9984C56.4041 99.9289 54.005 98.1098 54.304 95.7202L56.9383 74.6637C57.1531 72.9467 55.9322 71.3634 54.2005 71.3304C48.736 71.2263 43.3258 72.6262 38.575 75.406C32.9185 78.7157 28.5126 83.7966 26.0399 89.8616C23.5672 95.9266 23.1658 102.637 24.8978 108.953C26.6298 115.269 30.3986 120.838 35.6201 124.797C40.8417 128.756 47.2246 130.885 53.7797 130.852C60.3349 130.82 66.6964 128.629 71.8785 124.618C77.0606 120.607 80.774 115.001 82.4433 108.668C83.8454 103.35 83.7398 97.7673 82.1695 92.5375Z" fill="white"/>
<path d="M98.3857 72.3779C100.291 73.8348 99.9193 76.8019 97.714 77.7455L64.2585 92.0605C62.0323 93.0131 59.6114 91.1926 59.9118 88.7919L64.4688 52.3749C64.7692 49.9742 67.5642 48.8051 69.4871 50.2758L98.3857 72.3779Z" fill="white"/>
<path d="M167.199 112.296V97.8645H159.972V96.0352H176.233V97.8645H169.028V112.296H167.199Z" fill="#FFF100"/>
<path d="M177.967 112.296V98.7453C177.967 98.2484 178.087 97.7967 178.328 97.3902C178.569 96.9686 178.893 96.6374 179.299 96.3965C179.721 96.1556 180.18 96.0352 180.677 96.0352H191.517C192.014 96.0352 192.466 96.1556 192.872 96.3965C193.294 96.6374 193.625 96.9686 193.866 97.3902C194.107 97.7967 194.227 98.2484 194.227 98.7453V112.296H192.398V106.356H179.796V112.296H177.967ZM179.796 104.527H192.398V98.7453C192.398 98.5044 192.308 98.3011 192.127 98.1355C191.962 97.9548 191.758 97.8645 191.517 97.8645H180.677C180.436 97.8645 180.225 97.9548 180.045 98.1355C179.879 98.3011 179.796 98.5044 179.796 98.7453V104.527Z" fill="#FFF100"/>
<path d="M196.801 112.296V96.0577H210.351C210.848 96.0577 211.3 96.1857 211.706 96.4417C212.128 96.6826 212.459 97.0063 212.7 97.4128C212.941 97.8193 213.061 98.271 213.061 98.7679V103.533C213.061 104.03 212.941 104.482 212.7 104.888C212.459 105.295 212.128 105.626 211.706 105.882C211.3 106.123 210.848 106.243 210.351 106.243H198.63V112.296H196.801ZM199.511 104.391H210.351C210.592 104.391 210.795 104.309 210.961 104.143C211.142 103.977 211.232 103.774 211.232 103.533V98.7679C211.232 98.527 211.142 98.3237 210.961 98.1581C210.795 97.9774 210.592 97.8871 210.351 97.8871H199.511C199.27 97.8871 199.059 97.9774 198.878 98.1581C198.713 98.3237 198.63 98.527 198.63 98.7679V103.533C198.63 103.774 198.713 103.977 198.878 104.143C199.059 104.309 199.27 104.391 199.511 104.391Z" fill="#FFF100"/>
<path d="M220.864 112.296V98.7453C220.864 98.2484 220.984 97.7967 221.225 97.3902C221.466 96.9686 221.79 96.6374 222.196 96.3965C222.618 96.1556 223.077 96.0352 223.574 96.0352H234.414C234.911 96.0352 235.363 96.1556 235.769 96.3965C236.191 96.6374 236.522 96.9686 236.763 97.3902C237.004 97.7967 237.124 98.2484 237.124 98.7453V112.296H235.295V106.356H222.693V112.296H220.864ZM222.693 104.527H235.295V98.7453C235.295 98.5044 235.205 98.3011 235.024 98.1355C234.858 97.9548 234.655 97.8645 234.414 97.8645H223.574C223.333 97.8645 223.122 97.9548 222.941 98.1355C222.776 98.3011 222.693 98.5044 222.693 98.7453V104.527Z" fill="#FFF100"/>
<path d="M253.429 112.296L248.121 105.972H250.515L255.845 112.273V112.296H253.429ZM239.698 112.296V96.0577H253.248C253.745 96.0577 254.197 96.1857 254.603 96.4417C255.025 96.6826 255.356 97.0063 255.597 97.4128C255.838 97.8193 255.958 98.271 255.958 98.7679V103.533C255.958 104.03 255.838 104.482 255.597 104.888C255.356 105.295 255.025 105.626 254.603 105.882C254.197 106.123 253.745 106.243 253.248 106.243H241.527V112.296H239.698ZM242.408 104.391H253.248C253.489 104.391 253.692 104.309 253.858 104.143C254.039 103.977 254.129 103.774 254.129 103.533V98.7679C254.129 98.527 254.039 98.3237 253.858 98.1581C253.692 97.9774 253.489 97.8871 253.248 97.8871H242.408C242.167 97.8871 241.956 97.9774 241.775 98.1581C241.61 98.3237 241.527 98.527 241.527 98.7679V103.533C241.527 103.774 241.61 103.977 241.775 104.143C241.956 104.309 242.167 104.391 242.408 104.391Z" fill="#FFF100"/>
<path d="M258.379 112.296V96.0352H273.217V97.8645H260.208V103.24H270.665V105.091H260.208V110.467H273.217V112.296H258.379Z" fill="#FFF100"/>
<path d="M275.625 112.296V96.0352H278.132L290.056 110.218V96.0352H291.886V112.296H289.379L277.454 98.1129V112.296H275.625Z" fill="#FFF100"/>
<path d="M294.461 112.296V98.7453C294.461 98.2484 294.582 97.7967 294.822 97.3902C295.063 96.9686 295.387 96.6374 295.794 96.3965C296.215 96.1556 296.674 96.0352 297.171 96.0352H308.012C308.508 96.0352 308.96 96.1556 309.367 96.3965C309.788 96.6374 310.119 96.9686 310.36 97.3902C310.601 97.7967 310.722 98.2484 310.722 98.7453V112.296H308.892V106.356H296.29V112.296H294.461ZM296.29 104.527H308.892V98.7453C308.892 98.5044 308.802 98.3011 308.621 98.1355C308.456 97.9548 308.253 97.8645 308.012 97.8645H297.171C296.93 97.8645 296.719 97.9548 296.539 98.1355C296.373 98.3011 296.29 98.5044 296.29 98.7453V104.527Z" fill="#FFF100"/>
</svg>
