<svg width="8" height="12" viewBox="0 0 8 12" fill="none" xmlns="http://www.w3.org/2000/svg">
<g clip-path="url(#clip0_2352_1676)">
<path d="M9 1.35077V0.126917C9 0.0208385 8.87059 -0.037742 8.78319 0.0271714L1.20675 5.60181C1.14237 5.64897 1.09029 5.70936 1.05446 5.77837C1.01863 5.84737 1 5.92318 1 6C1 6.07682 1.01863 6.15263 1.05446 6.22163C1.09029 6.29064 1.14237 6.35103 1.20675 6.39819L8.78319 11.9728C8.87227 12.0377 9 11.9792 9 11.8731V10.6492C9 10.5716 8.96135 10.4972 8.89748 10.4497L2.84708 6.00079L8.89748 1.55026C8.96135 1.50276 9 1.42835 9 1.35077Z" fill="#B6B6B6"/>
</g>
<defs>
<clipPath id="clip0_2352_1676">
<rect width="8" height="12" fill="white"/>
</clipPath>
</defs>
</svg>
