<svg width="22" height="22" viewBox="0 0 22 22" fill="none" xmlns="http://www.w3.org/2000/svg">
<g clip-path="url(#clip0_2115_120)">
<path d="M1.5 5.5C1.5 3.61438 1.5 2.67157 2.08579 2.08579C2.67157 1.5 3.61438 1.5 5.5 1.5C7.38562 1.5 8.32843 1.5 8.91421 2.08579C9.5 2.67157 9.5 3.61438 9.5 5.5C9.5 7.38562 9.5 8.32843 8.91421 8.91421C8.32843 9.5 7.38562 9.5 5.5 9.5C3.61438 9.5 2.67157 9.5 2.08579 8.91421C1.5 8.32843 1.5 7.38562 1.5 5.5Z" stroke="white" stroke-width="1.5"/>
<path d="M12.5 16.5C12.5 14.6144 12.5 13.6716 13.0858 13.0858C13.6716 12.5 14.6144 12.5 16.5 12.5C18.3856 12.5 19.3284 12.5 19.9142 13.0858C20.5 13.6716 20.5 14.6144 20.5 16.5C20.5 18.3856 20.5 19.3284 19.9142 19.9142C19.3284 20.5 18.3856 20.5 16.5 20.5C14.6144 20.5 13.6716 20.5 13.0858 19.9142C12.5 19.3284 12.5 18.3856 12.5 16.5Z" stroke="white" stroke-width="1.5"/>
<path d="M1.5 16.5C1.5 14.6144 1.5 13.6716 2.08579 13.0858C2.67157 12.5 3.61438 12.5 5.5 12.5C7.38562 12.5 8.32843 12.5 8.91421 13.0858C9.5 13.6716 9.5 14.6144 9.5 16.5C9.5 18.3856 9.5 19.3284 8.91421 19.9142C8.32843 20.5 7.38562 20.5 5.5 20.5C3.61438 20.5 2.67157 20.5 2.08579 19.9142C1.5 19.3284 1.5 18.3856 1.5 16.5Z" stroke="white" stroke-width="1.5"/>
<path d="M12.5 5.5C12.5 3.61438 12.5 2.67157 13.0858 2.08579C13.6716 1.5 14.6144 1.5 16.5 1.5C18.3856 1.5 19.3284 1.5 19.9142 2.08579C20.5 2.67157 20.5 3.61438 20.5 5.5C20.5 7.38562 20.5 8.32843 19.9142 8.91421C19.3284 9.5 18.3856 9.5 16.5 9.5C14.6144 9.5 13.6716 9.5 13.0858 8.91421C12.5 8.32843 12.5 7.38562 12.5 5.5Z" stroke="white" stroke-width="1.5"/>
</g>
<defs>
<clipPath id="clip0_2115_120">
<rect width="22" height="22" rx="5" fill="white"/>
</clipPath>
</defs>
</svg>
