<svg width="55" height="55" viewBox="0 0 55 55" fill="none" xmlns="http://www.w3.org/2000/svg">
<g clip-path="url(#clip0_3401_2043)">
<rect width="55" height="55" fill="#0D0D0D"/>
<path d="M25.8205 31.28V29.928C25.8205 29.0613 26.0198 28.42 26.4185 28.004C26.8345 27.5707 27.5885 27.068 28.6805 26.496C29.5298 26.0627 30.1191 25.6813 30.4485 25.352C30.7778 25.0053 30.9425 24.5287 30.9425 23.922C30.9425 23.1073 30.6478 22.4573 30.0585 21.972C29.4865 21.4693 28.6458 21.218 27.5365 21.218C25.4218 21.218 24.2605 22.3013 24.0525 24.468H21.0885C21.2098 22.5267 21.8685 21.0447 23.0645 20.022C24.2605 18.9993 25.7858 18.488 27.6405 18.488C29.4778 18.488 30.9771 18.9733 32.1385 19.944C33.3171 20.8973 33.9065 22.1973 33.9065 23.844C33.9065 25.0053 33.6118 25.9067 33.0225 26.548C32.4505 27.1893 31.5665 27.822 30.3705 28.446C29.7811 28.758 29.3565 29.0613 29.0965 29.356C28.8365 29.6333 28.7065 30.006 28.7065 30.474V31.28H25.8205ZM27.2765 37.312C26.7218 37.312 26.2538 37.1387 25.8725 36.792C25.5085 36.4453 25.3265 36.0033 25.3265 35.466C25.3265 34.9287 25.5085 34.4953 25.8725 34.166C26.2365 33.8193 26.7045 33.646 27.2765 33.646C27.8485 33.646 28.3165 33.8193 28.6805 34.166C29.0618 34.4953 29.2525 34.9287 29.2525 35.466C29.2525 36.0033 29.0618 36.4453 28.6805 36.792C28.3165 37.1387 27.8485 37.312 27.2765 37.312Z" fill="#B6B6B6"/>
</g>
<defs>
<clipPath id="clip0_3401_2043">
<rect width="55" height="55" fill="white"/>
</clipPath>
</defs>
</svg>
