<svg width="47" height="47" viewBox="0 0 47 47" fill="none" xmlns="http://www.w3.org/2000/svg">
<path d="M46.7709 0.229124C46.4629 -0.0763745 45.9663 -0.0763745 45.6587 0.229124L30.1187 15.7701C26.0814 12.306 20.0581 12.5362 16.2969 16.2975C12.5353 20.0589 12.3055 26.0828 15.7691 30.1199L0.229114 45.6605C-0.0763715 45.9685 -0.0763715 46.4651 0.229114 46.7728C0.537827 47.0757 1.03263 47.0757 1.34134 46.7728L16.8813 31.2322C20.9186 34.6959 26.9419 34.4661 30.7031 30.7047C34.4647 26.943 34.6945 20.9194 31.2309 16.8824L46.7709 1.34139C47.0764 1.03375 47.0764 0.537132 46.7709 0.229124ZM23.4529 20.6419L22.3801 23.509L21.1033 26.9086C21.0595 27.0201 20.9928 27.1216 20.9075 27.2062C20.715 27.3851 20.4457 27.4565 20.1897 27.3969C19.9337 27.3374 19.7243 27.1542 19.6307 26.9086L19.4503 26.4385L17.2807 20.6419C17.1294 20.2353 17.3363 19.7832 17.7429 19.6315C18.1495 19.4802 18.602 19.6871 18.7533 20.0937L20.3668 24.4018L21.9803 20.0937C22.1319 19.6871 22.5841 19.4802 22.9907 19.6315C23.3976 19.7832 23.6045 20.2353 23.4529 20.6419ZM27.4163 22.7177C28.7142 22.7177 29.7662 23.7697 29.7662 25.0677C29.7662 26.3653 28.7142 27.4177 27.4163 27.4177H25.8498C25.4174 27.4177 25.0663 27.0667 25.0663 26.6343C25.0663 26.2015 25.4174 25.8508 25.8498 25.8508H27.4163C27.8491 25.8508 28.1997 25.5001 28.1997 25.0677C28.1997 24.6349 27.8491 24.2842 27.4163 24.2842C26.4751 24.2846 25.6257 23.7191 25.2625 22.851C25.1337 22.5624 25.067 22.2504 25.0663 21.9345C25.0703 20.6383 26.1201 19.5885 27.4163 19.5845H28.9828C29.4156 19.5845 29.7662 19.9352 29.7662 20.368C29.7662 20.8004 29.4156 21.1511 28.9828 21.1511H27.4163C26.9839 21.1511 26.6332 21.5018 26.6332 21.9345C26.6332 22.367 26.9839 22.7177 27.4163 22.7177Z" fill="#FFF100"/>
</svg>
