<svg width="25" height="24" viewBox="0 0 25 24" fill="none" xmlns="http://www.w3.org/2000/svg">
<path d="M6.5 8.66797H10.5" stroke="#0D0D0D" stroke-width="1.5" stroke-linecap="round" stroke-linejoin="round"/>
<path d="M21.3333 9.66797H18.7308C16.9465 9.66797 15.5 11.0111 15.5 12.668C15.5 14.3248 16.9465 15.668 18.7308 15.668H21.3333C21.4167 15.668 21.4583 15.668 21.4935 15.6658C22.0328 15.633 22.4623 15.2341 22.4977 14.7334C22.5 14.7007 22.5 14.662 22.5 14.5846V10.7513C22.5 10.6739 22.5 10.6352 22.4977 10.6026C22.4623 10.1018 22.0328 9.70293 21.4935 9.67011C21.4583 9.66797 21.4167 9.66797 21.3333 9.66797Z" stroke="#0D0D0D" stroke-width="1.5"/>
<path d="M21.465 9.66797C21.3873 7.79567 21.1366 6.64771 20.3284 5.83954C19.1569 4.66797 17.2712 4.66797 13.5 4.66797H10.5C6.72876 4.66797 4.84315 4.66797 3.67157 5.83954C2.5 7.01111 2.5 8.89673 2.5 12.668C2.5 16.4392 2.5 18.3248 3.67157 19.4964C4.84315 20.668 6.72876 20.668 10.5 20.668H13.5C17.2712 20.668 19.1569 20.668 20.3284 19.4964C21.1366 18.6882 21.3873 17.5403 21.465 15.668" stroke="#0D0D0D" stroke-width="1.5"/>
<path d="M6.5 4.66797L10.2355 2.1911C11.2874 1.49359 12.7126 1.49359 13.7645 2.1911L17.5 4.66797" stroke="#0D0D0D" stroke-width="1.5" stroke-linecap="round"/>
<path d="M18.4912 12.668H18.5002" stroke="#0D0D0D" stroke-width="1.5" stroke-linecap="round" stroke-linejoin="round"/>
</svg>
