<svg width="14" height="14" viewBox="0 0 14 14" fill="none" xmlns="http://www.w3.org/2000/svg">
<g clip-path="url(#clip0_2329_606)">
<path d="M7.00009 9.54581C3.33467 9.54581 2.68534 5.89279 2.57031 2.99538C2.53831 2.18943 2.52231 1.78646 2.82504 1.41361C3.12777 1.04077 3.49009 0.979637 4.21474 0.857373C4.93005 0.736684 5.8651 0.636719 7.00009 0.636719C8.13507 0.636719 9.07012 0.736684 9.78543 0.857373C10.5101 0.979637 10.8724 1.04077 11.1751 1.41361C11.4779 1.78646 11.4619 2.18943 11.4299 2.99538C11.3148 5.89279 10.6655 9.54581 7.00009 9.54581Z" stroke="#0D0D0D"/>
<path d="M7 9.54688V11.456" stroke="#0D0D0D" stroke-linecap="round"/>
<path d="M9.22725 13.3643H4.77271L4.98857 12.285C5.04806 11.9875 5.30924 11.7734 5.61258 11.7734H8.38737C8.69072 11.7734 8.95189 11.9875 9.01138 12.285L9.22725 13.3643Z" stroke="#0D0D0D" stroke-linecap="round" stroke-linejoin="round"/>
<path d="M11.4545 2.54688L12.0582 2.7481C12.6883 2.95811 13.0033 3.06312 13.1834 3.31311C13.3636 3.5631 13.3636 3.89516 13.3636 4.55927L13.3636 4.60543C13.3636 5.15317 13.3636 5.42704 13.2317 5.65112C13.0999 5.87519 12.8605 6.0082 12.3817 6.27421L10.5 7.3196" stroke="#0D0D0D"/>
<path d="M2.54541 2.54688L1.94174 2.7481C1.3117 2.95811 0.996683 3.06312 0.816504 3.31311C0.636326 3.5631 0.636335 3.89516 0.636353 4.55927L0.636354 4.60543C0.636369 5.15317 0.636377 5.42704 0.768224 5.65112C0.900071 5.87519 1.13948 6.0082 1.61829 6.27421L3.49995 7.3196" stroke="#0D0D0D"/>
<path d="M6.45655 3.19756C6.69836 2.76377 6.81927 2.54688 7.00003 2.54688C7.1808 2.54688 7.30171 2.76377 7.54352 3.19756L7.60608 3.30979C7.6748 3.43306 7.70915 3.4947 7.76273 3.53537C7.8163 3.57603 7.88302 3.59113 8.01645 3.62132L8.13794 3.64881C8.60751 3.75505 8.8423 3.80818 8.89816 3.98781C8.95402 4.16743 8.79396 4.35461 8.47383 4.72895L8.39101 4.8258C8.30004 4.93218 8.25456 4.98536 8.2341 5.05117C8.21363 5.11697 8.22051 5.18793 8.23426 5.32986L8.24678 5.45908C8.29518 5.95853 8.31938 6.20826 8.17314 6.31928C8.0269 6.4303 7.80707 6.32908 7.3674 6.12664L7.25366 6.07427C7.12872 6.01675 7.06625 5.98798 7.00003 5.98798C6.93382 5.98798 6.87135 6.01675 6.74641 6.07427L6.63266 6.12664C6.193 6.32908 5.97317 6.4303 5.82693 6.31928C5.68068 6.20826 5.70488 5.95854 5.75328 5.45908L5.7658 5.32986C5.77956 5.18793 5.78643 5.11697 5.76597 5.05117C5.74551 4.98536 5.70002 4.93218 5.60905 4.8258L5.52623 4.72895C5.20611 4.35461 5.04605 4.16743 5.1019 3.98781C5.15776 3.80818 5.39255 3.75505 5.86213 3.64881L5.98361 3.62132C6.11705 3.59113 6.18377 3.57603 6.23734 3.53537C6.29091 3.4947 6.32527 3.43306 6.39399 3.30979L6.45655 3.19756Z" stroke="#0D0D0D"/>
<path d="M10.8181 13.3633H3.18176" stroke="#0D0D0D" stroke-linecap="round"/>
</g>
<defs>
<clipPath id="clip0_2329_606">
<rect width="14" height="14" fill="white"/>
</clipPath>
</defs>
</svg>
