<svg width="12" height="12" viewBox="0 0 12 12" fill="none" xmlns="http://www.w3.org/2000/svg">
<path d="M3 4.33203H5" stroke="#FFF100" stroke-width="0.8" stroke-linecap="round" stroke-linejoin="round"/>
<path d="M10.4167 4.83203H9.11538C8.22323 4.83203 7.5 5.5036 7.5 6.33203C7.5 7.16046 8.22323 7.83203 9.11538 7.83203H10.4167C10.4583 7.83203 10.4792 7.83203 10.4968 7.83096C10.7664 7.81455 10.9812 7.61511 10.9988 7.36473C11 7.3484 11 7.32905 11 7.29036V5.3737C11 5.33501 11 5.31566 10.9988 5.29933C10.9812 5.04895 10.7664 4.84951 10.4968 4.8331C10.4792 4.83203 10.4583 4.83203 10.4167 4.83203Z" stroke="#FFF100" stroke-width="0.8"/>
<path d="M10.4825 4.83203C10.4436 3.89588 10.3183 3.3219 9.91421 2.91782C9.32843 2.33203 8.38562 2.33203 6.5 2.33203H5C3.11438 2.33203 2.17157 2.33203 1.58579 2.91782C1 3.5036 1 4.44641 1 6.33203C1 8.21765 1 9.16046 1.58579 9.74624C2.17157 10.332 3.11438 10.332 5 10.332H6.5C8.38562 10.332 9.32843 10.332 9.91421 9.74624C10.3183 9.34216 10.4436 8.76818 10.4825 7.83203" stroke="#FFF100" stroke-width="0.8"/>
<path d="M3 2.33203L4.86774 1.0936C5.39372 0.744842 6.10628 0.744842 6.63226 1.0936L8.5 2.33203" stroke="#FFF100" stroke-width="0.8" stroke-linecap="round"/>
<path d="M8.99562 6.33203H9.00012" stroke="#FFF100" stroke-width="0.8" stroke-linecap="round" stroke-linejoin="round"/>
</svg>
