<svg width="10" height="10" viewBox="0 0 10 10" fill="none" xmlns="http://www.w3.org/2000/svg">
<g clip-path="url(#clip0_2214_345)">
<path d="M5.00005 6.81676C2.3819 6.81676 1.91809 4.20746 1.83592 2.13788C1.81307 1.5622 1.80164 1.27437 2.01788 1.00805C2.23411 0.741732 2.49291 0.698067 3.01052 0.610735C3.52146 0.524529 4.18935 0.453125 5.00005 0.453125C5.81076 0.453125 6.47865 0.524529 6.98959 0.610735C7.50719 0.698067 7.76599 0.741732 7.98223 1.00805C8.19846 1.27437 8.18704 1.5622 8.16418 2.13788C8.08202 4.20746 7.61821 6.81676 5.00005 6.81676Z" stroke="#FFF100" stroke-width="0.8"/>
<path d="M5 6.81641V8.18004" stroke="#FFF100" stroke-width="0.8" stroke-linecap="round"/>
<path d="M6.59094 9.54652H3.40912L3.56331 8.77556C3.6058 8.56309 3.79236 8.41016 4.00903 8.41016H5.99103C6.2077 8.41016 6.39425 8.56309 6.43674 8.77556L6.59094 9.54652Z" stroke="#FFF100" stroke-width="0.8" stroke-linecap="round" stroke-linejoin="round"/>
<path d="M8.18182 1.81641L8.61301 1.96014C9.06304 2.11015 9.28805 2.18515 9.41675 2.36372C9.54545 2.54228 9.54544 2.77947 9.54543 3.25383L9.54543 3.2868C9.54542 3.67805 9.54541 3.87367 9.45123 4.03372C9.35706 4.19377 9.18605 4.28878 8.84404 4.47879L7.5 5.2255" stroke="#FFF100" stroke-width="0.8"/>
<path d="M1.81814 1.81641L1.38695 1.96014C0.936921 2.11015 0.711908 2.18515 0.583209 2.36372C0.45451 2.54228 0.454516 2.77947 0.454529 3.25383L0.45453 3.2868C0.454541 3.67805 0.454546 3.87367 0.548723 4.03372C0.642899 4.19377 0.813906 4.28878 1.15591 4.47879L2.49996 5.2255" stroke="#FFF100" stroke-width="0.8"/>
<path d="M4.61178 2.28118C4.78451 1.97133 4.87087 1.81641 4.99999 1.81641C5.12911 1.81641 5.21547 1.97133 5.38819 2.28118L5.43288 2.36135C5.48196 2.4494 5.5065 2.49342 5.54477 2.52247C5.58303 2.55152 5.63069 2.5623 5.726 2.58387L5.81278 2.6035C6.14819 2.67939 6.3159 2.71734 6.35579 2.84564C6.39569 2.97395 6.28136 3.10764 6.0527 3.37503L5.99355 3.44421C5.92857 3.52019 5.89608 3.55818 5.88146 3.60519C5.86685 3.65219 5.87176 3.70288 5.88158 3.80425L5.89053 3.89655C5.9251 4.25331 5.94238 4.43168 5.83792 4.51098C5.73346 4.59028 5.57644 4.51798 5.2624 4.37338L5.18115 4.33598C5.09191 4.29489 5.04729 4.27434 4.99999 4.27434C4.95269 4.27434 4.90807 4.29489 4.81883 4.33598L4.73758 4.37338C4.42354 4.51798 4.26651 4.59028 4.16205 4.51098C4.0576 4.43168 4.07488 4.25331 4.10945 3.89655L4.1184 3.80425C4.12822 3.70288 4.13313 3.65219 4.11852 3.60519C4.1039 3.55818 4.07141 3.52019 4.00643 3.44421L3.94727 3.37503C3.71861 3.10764 3.60428 2.97395 3.64418 2.84564C3.68408 2.71734 3.85179 2.67939 4.1872 2.6035L4.27397 2.58387C4.36929 2.5623 4.41694 2.55152 4.45521 2.52247C4.49347 2.49342 4.51801 2.4494 4.5671 2.36135L4.61178 2.28118Z" stroke="#FFF100" stroke-width="0.8"/>
<path d="M7.72725 9.54688H2.27271" stroke="#FFF100" stroke-width="0.8" stroke-linecap="round"/>
</g>
<defs>
<clipPath id="clip0_2214_345">
<rect width="10" height="10" fill="white"/>
</clipPath>
</defs>
</svg>
