<svg width="43" height="43" viewBox="0 0 43 43" fill="none" xmlns="http://www.w3.org/2000/svg">
<path d="M28.7437 31.9969C28.7437 31.9969 27.8476 30.9219 27.1007 29.9721C28.9052 29.5455 30.5013 28.4918 31.6067 26.9975C30.7109 27.5962 29.7505 28.0909 28.7437 28.4722C27.5857 28.9686 26.3745 29.3293 25.1341 29.5471C23.002 29.9413 20.8154 29.9328 18.6864 29.5222C17.4365 29.2765 16.2116 28.9168 15.0269 28.4474C14.4024 28.2062 13.7951 27.9222 13.2094 27.5975C13.1349 27.5474 13.0602 27.5224 12.9855 27.4724C12.948 27.4537 12.9143 27.4284 12.8859 27.3975C12.4378 27.1476 12.1888 26.9726 12.1888 26.9726C13.2542 28.4356 14.7952 29.4788 16.5454 29.922C15.7987 30.8721 14.8775 31.9967 14.8775 31.9967C13.3987 32.0367 11.9328 31.7111 10.6088 31.0486C9.2848 30.3861 8.14327 29.407 7.28467 28.1974C7.36549 23.13 8.59124 18.1471 10.8695 13.6246C12.8743 12.0436 15.3186 11.1265 17.8648 11L18.1138 11.3001C15.7182 11.8952 13.4828 13.0132 11.5665 14.5745C11.5665 14.5745 12.1142 14.2746 13.0352 13.8496C14.8247 13.0294 16.7319 12.498 18.6864 12.2749C18.8258 12.2458 18.9674 12.2291 19.1096 12.2248C20.7779 12.0066 22.4662 11.9899 24.1384 12.1749C26.7681 12.4765 29.3136 13.2916 31.6315 14.5745C29.8124 13.0877 27.6995 12.0057 25.4328 11.4L25.7813 11.0002C28.3275 11.1266 30.7718 12.0436 32.7766 13.6248C35.055 18.1472 36.2808 23.13 36.3616 28.1974C35.496 29.4058 34.3496 30.3835 33.022 31.0457C31.6943 31.7078 30.2257 32.0345 28.7437 31.9969ZM17.1678 20.3236C16.4919 20.3236 15.8438 20.5932 15.3659 21.0731C14.8881 21.5529 14.6196 22.2037 14.6196 22.8823C14.6196 23.5608 14.8881 24.2116 15.366 24.6914C15.8439 25.1713 16.492 25.4408 17.1678 25.4408C17.8437 25.4408 18.4918 25.1713 18.9697 24.6914C19.4476 24.2116 19.716 23.5608 19.7161 22.8823C19.7161 22.2037 19.4476 21.5529 18.9697 21.0731C18.4919 20.5932 17.8436 20.3236 17.1678 20.3236ZM26.2544 20.3236C25.6979 20.2763 25.1402 20.3987 24.6542 20.675C24.1682 20.9512 23.7765 21.3683 23.5306 21.8718C23.2846 22.3752 23.1957 22.9415 23.2756 23.4964C23.3555 24.0514 23.6004 24.5692 23.9783 24.9821C24.3561 25.395 24.8494 25.6838 25.3934 25.8105C25.9374 25.9373 26.5068 25.8962 27.0272 25.6926C27.5475 25.489 27.9946 25.1324 28.3097 24.6694C28.6248 24.2065 28.7934 23.6588 28.7934 23.0981C28.8083 22.7485 28.7544 22.3993 28.6349 22.0707C28.5153 21.742 28.3324 21.4402 28.0966 21.1825C27.8608 20.9248 27.5767 20.7164 27.2606 20.569C26.9445 20.4216 26.6026 20.3382 26.2544 20.3236Z" fill="white"/>
</svg>
