<svg width="43" height="43" viewBox="0 0 43 43" fill="none" xmlns="http://www.w3.org/2000/svg">
<path d="M7.20187 20.2382L27.4494 12.4315C28.3891 12.092 29.2099 12.6607 28.9054 14.0817L28.9071 14.08L25.4596 30.3217C25.2041 31.4732 24.5199 31.7532 23.5626 31.2107L18.3126 27.3415L15.7804 29.781C15.5004 30.061 15.2641 30.2972 14.7216 30.2972L15.0944 24.9545L24.8244 16.1642C25.2479 15.7915 24.7299 15.5815 24.1716 15.9525L12.1474 23.523L6.96387 21.906C5.83862 21.549 5.81412 20.7807 7.20187 20.2382Z" fill="white"/>
<path d="M31.496 30.5391L30.1197 28.8978H31.3409L32.4782 30.2483V30.5391H31.496ZM27.8388 30.5391V25.8932H31.5542C31.7265 25.8932 31.8815 25.9363 32.0194 26.0224C32.1615 26.1043 32.2757 26.2163 32.3619 26.3584C32.448 26.5006 32.4911 26.6557 32.4911 26.8237V28.0514C32.4911 28.2194 32.448 28.3744 32.3619 28.5166C32.2757 28.6544 32.1615 28.7664 32.0194 28.8526C31.8815 28.9344 31.7265 28.9754 31.5542 28.9754L28.7692 28.9818V30.5391H27.8388ZM28.808 28.0384H31.5089C31.5219 28.0384 31.5305 28.0363 31.5348 28.032C31.5434 28.0234 31.5477 28.0148 31.5477 28.0061V26.8624C31.5477 26.8495 31.5434 26.8409 31.5348 26.8366C31.5305 26.828 31.5219 26.8237 31.5089 26.8237H28.808C28.7951 26.8237 28.7843 26.828 28.7757 26.8366C28.7714 26.8409 28.7692 26.8495 28.7692 26.8624V28.0061C28.7692 28.0148 28.7714 28.0234 28.7757 28.032C28.7843 28.0363 28.7951 28.0384 28.808 28.0384ZM34.0883 30.5391C33.916 30.5391 33.7588 30.4981 33.6167 30.4163C33.4788 30.3301 33.3668 30.2181 33.2807 30.0803C33.1988 29.9381 33.1579 29.7809 33.1579 29.6086V25.8868H34.0883V29.5634C34.0883 29.5763 34.0905 29.5871 34.0948 29.5957C34.1034 29.6 34.1142 29.6021 34.1271 29.6021H36.828C36.841 29.6021 36.8496 29.6 36.8539 29.5957C36.8625 29.5871 36.8668 29.5763 36.8668 29.5634V25.8868H37.8102V29.6086C37.8102 29.7809 37.7671 29.9381 37.681 30.0803C37.5948 30.2181 37.4807 30.3301 37.3385 30.4163C37.2007 30.4981 37.0477 30.5391 36.8797 30.5391H34.0883Z" fill="white"/>
</svg>
