<svg width="43" height="43" viewBox="0 0 43 43" fill="none" xmlns="http://www.w3.org/2000/svg">
<path d="M7.20187 20.2382L27.4494 12.4315C28.3891 12.092 29.2099 12.6607 28.9054 14.0817L28.9071 14.08L25.4596 30.3217C25.2041 31.4732 24.5199 31.7532 23.5626 31.2107L18.3126 27.3415L15.7804 29.781C15.5004 30.061 15.2641 30.2972 14.7216 30.2972L15.0944 24.9545L24.8244 16.1642C25.2479 15.7915 24.7299 15.5815 24.1716 15.9525L12.1474 23.523L6.96387 21.906C5.83862 21.549 5.81412 20.7807 7.20187 20.2382Z" fill="white"/>
<path d="M27.8517 31.3477V26.6953H32.1422V27.6323H28.7951V28.5498H31.4895V29.4932H28.7951V30.4107H32.1422V31.3477H27.8517ZM32.7859 31.3477V26.6953H33.7745L36.4948 29.939V26.6953H37.4382V31.3477H36.4496L33.7164 28.091V31.3477H32.7859Z" fill="white"/>
</svg>
