<svg width="43" height="43" viewBox="0 0 43 43" fill="none" xmlns="http://www.w3.org/2000/svg">
<path d="M32.6638 15.957C32.5381 15.4643 32.2861 15.0143 31.9335 14.6532C31.5808 14.292 31.1403 14.0325 30.6568 13.9012C27.7254 13.5496 24.7747 13.3911 21.8231 13.4268C18.8715 13.3911 15.9208 13.5496 12.9894 13.9012C12.5059 14.0325 12.0653 14.292 11.7127 14.6532C11.3601 15.0143 11.1081 15.4643 10.9824 15.957C10.6613 17.7883 10.5051 19.6457 10.516 21.506C10.5046 23.3758 10.6607 25.2428 10.9824 27.0838C11.1146 27.5685 11.3695 28.0094 11.7217 28.3626C12.0739 28.7158 12.511 28.9689 12.9894 29.0964C15.9208 29.448 18.8715 29.6066 21.8231 29.5708C24.7747 29.6066 27.7254 29.448 30.6568 29.0964C31.1352 28.9689 31.5724 28.7158 31.9244 28.3626C32.2766 28.0094 32.5316 27.5685 32.6638 27.0838C32.9855 25.2428 33.1415 23.3758 33.1302 21.506C33.1411 19.6457 32.9849 17.7883 32.6638 15.957ZM19.5051 24.9418V18.0989L25.4272 21.506L19.5051 24.9274V24.9418Z" fill="white"/>
</svg>
